<svg width="34" height="32" viewBox="0 0 34 32" fill="none" xmlns="http://www.w3.org/2000/svg">
<path d="M11.3199 18.4V12.8" stroke="black" stroke-width="1.5" stroke-linecap="round" stroke-linejoin="round"/>
<path d="M11.523 24C12.9808 24 14.1626 22.836 14.1626 21.4C14.1626 19.9641 12.9808 18.8 11.523 18.8C10.0652 18.8 8.88336 19.9641 8.88336 21.4C8.88336 22.836 10.0652 24 11.523 24Z" stroke="black" stroke-width="1.5" stroke-linecap="round" stroke-linejoin="round"/>
<path d="M11.3199 12.8C12.6656 12.8 13.7564 11.7255 13.7564 10.4C13.7564 9.0745 12.6656 8 11.3199 8C9.97423 8 8.88336 9.0745 8.88336 10.4C8.88336 11.7255 9.97423 12.8 11.3199 12.8Z" stroke="black" stroke-width="1.5" stroke-linecap="round" stroke-linejoin="round"/>
<path d="M22.6905 12.8C24.0362 12.8 25.127 11.7255 25.127 10.4C25.127 9.0745 24.0362 8 22.6905 8C21.3448 8 20.254 9.0745 20.254 10.4C20.254 11.7255 21.3448 12.8 22.6905 12.8Z" stroke="black" stroke-width="1.5" stroke-linecap="round" stroke-linejoin="round"/>
<path d="M11.4282 18.4C11.7937 17 13.0932 15.96 14.6228 15.9733L17.4113 15.9867C19.5365 16 21.3504 14.6533 22.0137 12.7733" stroke="black" stroke-width="1.5" stroke-linecap="round" stroke-linejoin="round"/>
<path d="M12.9443 2.66663H21.0661C27.8343 2.66663 30.5416 5.33329 30.5416 12V20C30.5416 26.6666 27.8343 29.3333 21.0661 29.3333H12.9443C6.17609 29.3333 3.46881 26.6666 3.46881 20V12C3.46881 5.33329 6.17609 2.66663 12.9443 2.66663Z" stroke="black" stroke-width="1.5" stroke-linecap="round" stroke-linejoin="round"/>
</svg>
