<svg width="19" height="18" viewBox="0 0 19 18" fill="none" xmlns="http://www.w3.org/2000/svg">
<path d="M18.5 9.00004C18.5001 11.1192 17.7524 13.1704 16.3887 14.7924C15.0249 16.4144 13.1325 17.5032 11.0448 17.8669C8.95708 18.2307 6.80798 17.8461 4.97601 16.7808C3.14404 15.7156 1.74671 14.0381 1.03014 12.0438C0.313568 10.0494 0.323714 7.86623 1.05879 5.87865C1.79387 3.89107 3.20672 2.22662 5.04851 1.17847C6.8903 0.130315 9.04288 -0.234312 11.1271 0.148812C13.2114 0.531935 15.0935 1.63823 16.4422 3.27285C16.5091 3.34819 16.5602 3.43624 16.5924 3.53176C16.6245 3.62728 16.6371 3.7283 16.6294 3.82879C16.6216 3.92928 16.5937 4.02718 16.5472 4.11663C16.5008 4.20608 16.4368 4.28526 16.3591 4.34943C16.2814 4.4136 16.1915 4.46144 16.0949 4.4901C15.9983 4.51877 15.8968 4.52766 15.7967 4.51626C15.6966 4.50485 15.5998 4.47338 15.512 4.42372C15.4243 4.37406 15.3475 4.30723 15.2863 4.22723C14.1832 2.88971 12.6508 1.97567 10.9497 1.64058C9.24873 1.3055 7.48416 1.57008 5.95621 2.3893C4.42827 3.20853 3.23133 4.53181 2.56902 6.13402C1.90671 7.73624 1.81994 9.51842 2.32346 11.1774C2.82699 12.8364 3.8897 14.2697 5.33083 15.2335C6.77196 16.1973 8.50248 16.632 10.228 16.4638C11.9535 16.2955 13.5675 15.5347 14.7953 14.3106C16.0231 13.0866 16.7889 11.475 16.9625 9.75004H9.5C9.30109 9.75004 9.11032 9.67102 8.96967 9.53037C8.82902 9.38972 8.75 9.19895 8.75 9.00004C8.75 8.80113 8.82902 8.61036 8.96967 8.46971C9.11032 8.32906 9.30109 8.25004 9.5 8.25004H17.75C17.9489 8.25004 18.1397 8.32906 18.2803 8.46971C18.421 8.61036 18.5 8.80113 18.5 9.00004Z" fill="black"/>
</svg>
