<svg width="32" height="33" viewBox="0 0 32 33" fill="none" xmlns="http://www.w3.org/2000/svg">
<path d="M27.2463 19.67C29.2782 19.67 30.9257 17.3805 30.9257 14.555C30.9257 11.7295 29.2781 9.43848 27.2463 9.43848C25.2149 9.43848 23.5674 11.7295 23.5674 14.555C23.5674 17.3805 25.2149 19.67 27.2463 19.67Z" fill="white"/>
<path d="M31.958 24.6002C31.7941 23.2303 30.9797 21.3131 30.3634 20.4566C30.2822 20.3431 29.9193 20.3168 29.8213 20.4013C29.0719 21.0422 28.1917 21.4194 27.2469 21.4194C26.3033 21.4194 25.4229 21.0422 24.6735 20.4013C24.5751 20.3168 24.2127 20.3431 24.1315 20.4566C23.9592 20.6962 23.7712 21.0151 23.5879 21.385C24.0838 22.6835 24.4771 24.0628 24.6191 25.2505C24.7609 26.4412 24.7149 27.5684 24.4855 28.5961C25.3003 29.006 26.2775 29.1859 27.2469 29.1859C29.7753 29.1859 32.3628 27.9668 31.958 24.6002Z" fill="white"/>
<path d="M15.9054 17.5113C19.1984 17.5113 21.8681 13.7988 21.8681 9.2198C21.8681 4.64219 19.1984 0.929688 15.9054 0.929688C12.6131 0.929688 9.94434 4.64219 9.94434 9.2198C9.94434 13.7988 12.613 17.5113 15.9054 17.5113Z" fill="white"/>
<path d="M20.9541 18.781C20.8247 18.6018 20.2372 18.556 20.0774 18.6935C18.8619 19.7335 17.4355 20.3423 15.9052 20.3423C14.3761 20.3423 12.949 19.7335 11.7341 18.6935C11.5744 18.556 10.9869 18.6018 10.8575 18.781C9.8562 20.1719 8.53651 23.2814 8.27101 25.4982C7.61639 30.9584 11.8106 32.9298 15.9052 32.9298C20.001 32.9298 24.1952 30.9584 23.5405 25.4982C23.275 23.2814 21.9554 20.1719 20.9541 18.781Z" fill="white"/>
<path d="M4.75267 19.67C6.78404 19.67 8.43153 17.3805 8.43153 14.555C8.43153 11.7295 6.78404 9.43848 4.75267 9.43848C2.72074 9.43848 1.07324 11.7295 1.07324 14.555C1.07324 17.3805 2.72074 19.67 4.75267 19.67Z" fill="white"/>
<path d="M7.19339 25.2505C7.34426 24.0031 7.76995 22.5343 8.30363 21.1761C8.15488 20.8936 8.0062 20.6474 7.86895 20.4566C7.78776 20.3431 7.42538 20.3168 7.32695 20.4013C6.57751 21.0422 5.6972 21.4194 4.75308 21.4194C3.80883 21.4194 2.92796 21.0422 2.17915 20.4013C2.08115 20.3168 1.71778 20.3431 1.63659 20.4566C1.01865 21.313 0.206467 23.2303 0.0419672 24.6002C-0.362282 27.9668 2.22471 29.1858 4.75308 29.1858C5.65539 29.1858 6.56657 29.0314 7.34426 28.6783C7.0992 27.6297 7.04732 26.4761 7.19339 25.2505Z" fill="white"/>
</svg>
