<svg width="32" height="33" viewBox="0 0 32 33" fill="none" xmlns="http://www.w3.org/2000/svg">
<path d="M8.28557 3.21582C6.23423 3.21582 4.57129 4.87877 4.57129 6.93011V26.9298C4.57129 28.9811 6.23423 30.6441 8.28557 30.6441H19.2201L16.7553 28.1791C15.7511 27.175 15.7511 25.5468 16.7553 24.5427C17.7594 23.5384 19.3876 23.5384 20.3917 24.5427L21.9999 26.1507L27.0387 21.1118C27.1602 20.9903 27.2908 20.8835 27.4284 20.7915V6.93011C27.4284 4.87876 25.7655 3.21582 23.7141 3.21582H8.28557ZM11.9999 10.9301C11.9999 11.7191 11.3603 12.3587 10.5713 12.3587C9.78231 12.3587 9.14272 11.7191 9.14272 10.9301C9.14272 10.1411 9.78231 9.50153 10.5713 9.50153C11.3603 9.50153 11.9999 10.1411 11.9999 10.9301ZM10.5713 18.3584C9.78231 18.3584 9.14272 17.7189 9.14272 16.9299C9.14272 16.141 9.78231 15.5013 10.5713 15.5013C11.3603 15.5013 11.9999 16.141 11.9999 16.9299C11.9999 17.7189 11.3603 18.3584 10.5713 18.3584ZM10.5713 24.3587C9.78231 24.3587 9.14272 23.7191 9.14272 22.9301C9.14272 22.1411 9.78231 21.5015 10.5713 21.5015C11.3603 21.5015 11.9999 22.1411 11.9999 22.9301C11.9999 23.7191 11.3603 24.3587 10.5713 24.3587ZM14.5713 10.073H21.9999C22.4732 10.073 22.857 10.4567 22.857 10.9301C22.857 11.4035 22.4732 11.7872 21.9999 11.7872H14.5713C14.0979 11.7872 13.7141 11.4035 13.7141 10.9301C13.7141 10.4567 14.0979 10.073 14.5713 10.073ZM13.7141 16.9299C13.7141 16.4565 14.0979 16.0727 14.5713 16.0727H21.9999C22.4732 16.0727 22.857 16.4565 22.857 16.9299C22.857 17.4032 22.4732 17.787 21.9999 17.787H14.5713C14.0979 17.787 13.7141 17.4032 13.7141 16.9299ZM14.5713 22.073H21.9999C22.4732 22.073 22.857 22.4567 22.857 22.9301C22.857 23.4035 22.4732 23.7873 21.9999 23.7873H14.5713C14.0979 23.7873 13.7141 23.4035 13.7141 22.9301C13.7141 22.4567 14.0979 22.073 14.5713 22.073Z" fill="white"/>
<path d="M22.6059 30.3926L29.463 23.5354C29.7978 23.2007 29.7978 22.6581 29.463 22.3233C29.1283 21.9886 28.5857 21.9886 28.2509 22.3233L21.9998 28.5743L19.1796 25.7541C18.8449 25.4193 18.3021 25.4193 17.9674 25.7541C17.6326 26.0888 17.6326 26.6316 17.9674 26.9663L21.3938 30.3926C21.5545 30.5534 21.7725 30.6437 21.9998 30.6437C22.2271 30.6437 22.4452 30.5534 22.6059 30.3926Z" fill="white"/>
</svg>
